<?xml version="1.0" standalone="no"?>
<!DOCTYPE svg PUBLIC "-//W3C//DTD SVG 1.1//EN"
"http://www.w3.org/Graphics/SVG/1.1/DTD/svg11.dtd">

<svg width="345" height="594" view_box="0 0 345 594"
xmlns="http://www.w3.org/2000/svg"
xmlns:link="http://www.w3.org/1999/xlink">\n\n<desc>Généré par Mocodo 2.3.7 le Fri, 10 Jun 2022 06:59:34</desc>

<rect id="frame" x="0" y="0" width="345" height="594" fill="#f7f7f7" stroke="none" stroke-width="0"/>

<!-- Association possession -->
<line x1="169" y1="331" x2="169" y2="94" stroke="#d6604d" stroke-width="2"/>
<text x="174.0" y="179" fill="#2166ac" font-family="Verdana" font-size="12">1,N</text>
<line x1="296" y1="94" x2="169" y2="94" stroke="#d6604d" stroke-width="2"/>
<text x="233" y="111.0" fill="#2166ac" font-family="Verdana" font-size="12">1,1</text>
<g id="association-possession">
	<path d="M 195 69 a 14 14 90 0 1 14 14 V 94 h -80 V 83 a 14 14 90 0 1 14 -14" fill="#f4a582" stroke="#f4a582" stroke-width="0"/>
	<path d="M 209 94.0 v 11 a 14 14 90 0 1 -14 14 H 143 a 14 14 90 0 1 -14 -14 V 94.0 H 80" fill="#fddbc7" stroke="#fddbc7" stroke-width="0"/>
	<rect x="129" y="69" width="80" height="50" fill="none" rx="14" stroke="#d6604d" stroke-width="2"/>
	<line x1="129" y1="94" x2="209" y2="94" stroke="#d6604d" stroke-width="1"/>
	<text x="136" y="86.7" fill="#000000" font-family="Verdana" font-size="12">possession</text>
</g>

<!-- Association to -->
<line x1="53" y1="534" x2="169" y2="534" stroke="#d6604d" stroke-width="2"/>
<text x="97" y="551.0" fill="#2166ac" font-family="Verdana" font-size="12">1,N</text>
<line x1="169" y1="331" x2="169" y2="534" stroke="#d6604d" stroke-width="2"/>
<text x="174.0" y="492" fill="#2166ac" font-family="Verdana" font-size="12">0,N</text>
<g id="association-to">
	<path d="M 169 509 a 14 14 90 0 1 14 14 V 534 h -28 V 523 a 14 14 90 0 1 14 -14" fill="#f4a582" stroke="#f4a582" stroke-width="0"/>
	<path d="M 183 534.0 v 11 a 14 14 90 0 1 -14 14 H 169 a 14 14 90 0 1 -14 -14 V 534.0 H 28" fill="#fddbc7" stroke="#fddbc7" stroke-width="0"/>
	<rect x="155" y="509" width="28" height="50" fill="none" rx="14" stroke="#d6604d" stroke-width="2"/>
	<line x1="155" y1="534" x2="183" y2="534" stroke="#d6604d" stroke-width="1"/>
	<text x="162" y="526.7" fill="#000000" font-family="Verdana" font-size="12">to</text>
</g>

<!-- Association has_brand -->
<line x1="169" y1="331" x2="296" y2="331" stroke="#d6604d" stroke-width="2"/>
<text x="229" y="348.0" fill="#2166ac" font-family="Verdana" font-size="12">1,N</text>
<line x1="296" y1="534" x2="296" y2="331" stroke="#d6604d" stroke-width="2"/>
<text x="301.0" y="475" fill="#2166ac" font-family="Verdana" font-size="12">0,1</text>
<g id="association-has_brand">
	<path d="M 322 306 a 14 14 90 0 1 14 14 V 331 h -80 V 320 a 14 14 90 0 1 14 -14" fill="#f4a582" stroke="#f4a582" stroke-width="0"/>
	<path d="M 336 331.0 v 11 a 14 14 90 0 1 -14 14 H 270 a 14 14 90 0 1 -14 -14 V 331.0 H 80" fill="#fddbc7" stroke="#fddbc7" stroke-width="0"/>
	<rect x="256" y="306" width="80" height="50" fill="none" rx="14" stroke="#d6604d" stroke-width="2"/>
	<line x1="256" y1="331" x2="336" y2="331" stroke="#d6604d" stroke-width="1"/>
	<text x="263" y="323.7" fill="#000000" font-family="Verdana" font-size="12">has_brand</text>
</g>

<!-- Association link -->
<line x1="53" y1="94" x2="53" y2="331" stroke="#d6604d" stroke-width="2"/>
<text x="58.0" y="179" fill="#2166ac" font-family="Verdana" font-size="12">1,N</text>
<line x1="53" y1="534" x2="53" y2="331" stroke="#d6604d" stroke-width="2"/>
<text x="58.0" y="492" fill="#2166ac" font-family="Verdana" font-size="12">1,N</text>
<g id="association-link">
	<path d="M 57 306 a 14 14 90 0 1 14 14 V 331 h -36 V 320 a 14 14 90 0 1 14 -14" fill="#f4a582" stroke="#f4a582" stroke-width="0"/>
	<path d="M 71 331.0 v 11 a 14 14 90 0 1 -14 14 H 49 a 14 14 90 0 1 -14 -14 V 331.0 H 36" fill="#fddbc7" stroke="#fddbc7" stroke-width="0"/>
	<rect x="35" y="306" width="36" height="50" fill="none" rx="14" stroke="#d6604d" stroke-width="2"/>
	<line x1="35" y1="331" x2="71" y2="331" stroke="#d6604d" stroke-width="1"/>
	<text x="42" y="323.7" fill="#000000" font-family="Verdana" font-size="12">link</text>
</g>

<!-- Entity GUITAR -->
<g id="entity-GUITAR">
	<g id="frame-GUITAR">
		<rect x="114" y="187" width="110" height="25" fill="#92c5de" stroke="#92c5de" stroke-width="0"/>
		<rect x="114" y="212.0" width="110" height="263" fill="#d1e5f0" stroke="#d1e5f0" stroke-width="0"/>
		<rect x="114" y="187" width="110" height="288" fill="none" stroke="#4393c3" stroke-width="2"/>
		<line x1="114" y1="212" x2="224" y2="212" stroke="#4393c3" stroke-width="1"/>
	</g>
	<text x="145" y="204.7" fill="#000000" font-family="Verdana" font-size="12">GUITAR</text>
	<text x="119" y="229.7" fill="#000000" font-family="Verdana" font-size="12">model</text>
	<line x1="119" y1="232" x2="157" y2="232" stroke="#000000" stroke-width="1"/>
	<text x="119" y="246.7" fill="#000000" font-family="Verdana" font-size="12">year</text>
	<text x="119" y="263.7" fill="#000000" font-family="Verdana" font-size="12">asquisitionAt</text>
	<text x="119" y="280.7" fill="#000000" font-family="Verdana" font-size="12">wear</text>
	<text x="119" y="297.7" fill="#000000" font-family="Verdana" font-size="12">finition</text>
	<text x="119" y="314.7" fill="#000000" font-family="Verdana" font-size="12">pickup</text>
	<text x="119" y="331.8" fill="#000000" font-family="Verdana" font-size="12">neckMaterial</text>
	<text x="119" y="348.8" fill="#000000" font-family="Verdana" font-size="12">bodyMaterial</text>
	<text x="119" y="365.8" fill="#000000" font-family="Verdana" font-size="12">bodyForm</text>
	<text x="119" y="382.8" fill="#000000" font-family="Verdana" font-size="12">dominationHand</text>
	<text x="119" y="399.8" fill="#000000" font-family="Verdana" font-size="12">nbFrets</text>
	<text x="119" y="416.8" fill="#000000" font-family="Verdana" font-size="12">fixation</text>
	<text x="119" y="433.8" fill="#000000" font-family="Verdana" font-size="12">image</text>
	<text x="119" y="450.8" fill="#000000" font-family="Verdana" font-size="12">createdAt</text>
	<text x="119" y="467.8" fill="#000000" font-family="Verdana" font-size="12">updatedAt</text>
</g>

<!-- Entity CATEGORY -->
<g id="entity-CATEGORY">
	<g id="frame-CATEGORY">
		<rect x="14" y="500" width="78" height="25" fill="#92c5de" stroke="#92c5de" stroke-width="0"/>
		<rect x="14" y="525.0" width="78" height="43" fill="#d1e5f0" stroke="#d1e5f0" stroke-width="0"/>
		<rect x="14" y="500" width="78" height="68" fill="none" stroke="#4393c3" stroke-width="2"/>
		<line x1="14" y1="525" x2="92" y2="525" stroke="#4393c3" stroke-width="1"/>
	</g>
	<text x="19" y="517.7" fill="#000000" font-family="Verdana" font-size="12">CATEGORY</text>
	<text x="19" y="542.8" fill="#000000" font-family="Verdana" font-size="12">name</text>
	<line x1="19" y1="545" x2="54" y2="545" stroke="#000000" stroke-width="1"/>
	<text x="19" y="559.8" fill="#000000" font-family="Verdana" font-size="12">image</text>
</g>

<!-- Entity POST -->
<g id="entity-POST">
	<g id="frame-POST">
		<rect x="9" y="26" width="88" height="25" fill="#92c5de" stroke="#92c5de" stroke-width="0"/>
		<rect x="9" y="51.0" width="88" height="111" fill="#d1e5f0" stroke="#d1e5f0" stroke-width="0"/>
		<rect x="9" y="26" width="88" height="136" fill="none" stroke="#4393c3" stroke-width="2"/>
		<line x1="9" y1="51" x2="97" y2="51" stroke="#4393c3" stroke-width="1"/>
	</g>
	<text x="36" y="43.7" fill="#000000" font-family="Verdana" font-size="12">POST</text>
	<text x="14" y="68.7" fill="#000000" font-family="Verdana" font-size="12">title</text>
	<line x1="14" y1="71" x2="38" y2="71" stroke="#000000" stroke-width="1"/>
	<text x="14" y="85.7" fill="#000000" font-family="Verdana" font-size="12">presentation</text>
	<text x="14" y="102.8" fill="#000000" font-family="Verdana" font-size="12">synopsis</text>
	<text x="14" y="119.8" fill="#000000" font-family="Verdana" font-size="12">image</text>
	<text x="14" y="136.8" fill="#000000" font-family="Verdana" font-size="12">createdAt</text>
	<text x="14" y="153.8" fill="#000000" font-family="Verdana" font-size="12">updatedAt</text>
</g>

<!-- Entity BRAND -->
<g id="entity-BRAND">
	<g id="frame-BRAND">
		<rect x="259" y="483" width="74" height="25" fill="#92c5de" stroke="#92c5de" stroke-width="0"/>
		<rect x="259" y="508.0" width="74" height="77" fill="#d1e5f0" stroke="#d1e5f0" stroke-width="0"/>
		<rect x="259" y="483" width="74" height="102" fill="none" stroke="#4393c3" stroke-width="2"/>
		<line x1="259" y1="508" x2="333" y2="508" stroke="#4393c3" stroke-width="1"/>
	</g>
	<text x="274" y="500.7" fill="#000000" font-family="Verdana" font-size="12">BRAND</text>
	<text x="264" y="525.7" fill="#000000" font-family="Verdana" font-size="12">name</text>
	<line x1="264" y1="528" x2="299" y2="528" stroke="#000000" stroke-width="1"/>
	<text x="264" y="542.8" fill="#000000" font-family="Verdana" font-size="12">image</text>
	<text x="264" y="559.8" fill="#000000" font-family="Verdana" font-size="12">createdAt</text>
	<text x="264" y="576.8" fill="#000000" font-family="Verdana" font-size="12">updatedAt</text>
</g>

<!-- Entity USER -->
<g id="entity-USER">
	<g id="frame-USER">
		<rect x="259" y="9" width="74" height="25" fill="#92c5de" stroke="#92c5de" stroke-width="0"/>
		<rect x="259" y="34.0" width="74" height="145" fill="#d1e5f0" stroke="#d1e5f0" stroke-width="0"/>
		<rect x="259" y="9" width="74" height="170" fill="none" stroke="#4393c3" stroke-width="2"/>
		<line x1="259" y1="34" x2="333" y2="34" stroke="#4393c3" stroke-width="1"/>
	</g>
	<text x="279" y="26.7" fill="#000000" font-family="Verdana" font-size="12">USER</text>
	<text x="264" y="51.7" fill="#000000" font-family="Verdana" font-size="12">email</text>
	<line x1="264" y1="54" x2="298" y2="54" stroke="#000000" stroke-width="1"/>
	<text x="264" y="68.7" fill="#000000" font-family="Verdana" font-size="12">roles</text>
	<text x="264" y="85.7" fill="#000000" font-family="Verdana" font-size="12">password</text>
	<text x="264" y="102.8" fill="#000000" font-family="Verdana" font-size="12">image</text>
	<text x="264" y="119.8" fill="#000000" font-family="Verdana" font-size="12">firstName</text>
	<text x="264" y="136.8" fill="#000000" font-family="Verdana" font-size="12">lastName</text>
	<text x="264" y="153.8" fill="#000000" font-family="Verdana" font-size="12">createdAt</text>
	<text x="264" y="170.8" fill="#000000" font-family="Verdana" font-size="12">updatedAt</text>
</g>
</svg>