<svg xmlns="http://www.w3.org/2000/svg" xmlns:xlink="http://www.w3.org/1999/xlink" width="500" zoomAndPan="magnify" viewBox="0 0 375 374.999991" height="500" preserveAspectRatio="xMidYMid meet" version="1.0"><defs><g><g id="id1"/><g id="id2"/><g id="id3"/><g id="id4"/><g id="id5"/><g id="id6"/><g id="id7"/><g id="id8"/><g id="id9"/><g id="id10"/><g id="id11"/><g id="id12"/><g id="id13"/><g id="id14"/><g id="id15"/><g id="id16"/></g><clipPath id="id17"><path d="M 75.203125 187 L 299.453125 187 L 299.453125 299.96875 L 75.203125 299.96875 Z M 75.203125 187 " clip-rule="nonzero"/></clipPath></defs><path fill="rgb(94.119263%, 64.709473%, 0%)" d="M 187.351562 374.699219 C 137.332031 374.699219 90.230469 355.230469 54.886719 319.8125 C 19.46875 284.46875 0 237.371094 0 187.351562 C 0 137.332031 19.46875 90.230469 54.886719 54.886719 C 90.230469 19.46875 137.332031 0 187.351562 0 C 237.371094 0 284.46875 19.46875 319.8125 54.886719 C 355.230469 90.304688 374.699219 137.332031 374.699219 187.351562 C 374.699219 237.371094 355.230469 284.46875 319.8125 319.8125 C 284.46875 355.230469 237.371094 374.699219 187.351562 374.699219 Z M 187.351562 11.230469 C 140.324219 11.230469 96.070312 29.578125 62.824219 62.824219 C 29.578125 96.070312 11.230469 140.324219 11.230469 187.351562 C 11.230469 234.375 29.578125 278.628906 62.824219 311.875 C 96.070312 345.121094 140.324219 363.46875 187.351562 363.46875 C 234.375 363.46875 278.628906 345.121094 311.875 311.875 C 345.121094 278.628906 363.46875 234.375 363.46875 187.351562 C 363.46875 140.324219 345.121094 96.070312 311.875 62.824219 C 278.628906 29.578125 234.375 11.230469 187.351562 11.230469 Z M 187.351562 11.230469 " fill-opacity="1" fill-rule="nonzero"/><g fill="rgb(100%, 64.709473%, 0%)" fill-opacity="1"><g transform="translate(108.924841, 98.270221)"><g><path d="M 9.21875 -23.203125 L 14.140625 -26.609375 L 20.1875 -17.890625 C 19.550781 -16.203125 18.5625 -14.492188 17.21875 -12.765625 C 15.875 -11.035156 14.429688 -9.632812 12.890625 -8.5625 C 9.484375 -6.195312 5.882812 -5.316406 2.09375 -5.921875 C -1.695312 -6.523438 -4.722656 -8.453125 -6.984375 -11.703125 C -9.222656 -14.941406 -9.921875 -18.457031 -9.078125 -22.25 C -8.242188 -26.050781 -6.0625 -29.175781 -2.53125 -31.625 C -0.863281 -32.78125 0.992188 -33.628906 3.046875 -34.171875 C 5.097656 -34.710938 7.050781 -34.863281 8.90625 -34.625 L 8.390625 -28.546875 C 7.066406 -28.734375 5.71875 -28.675781 4.34375 -28.375 C 2.976562 -28.070312 1.773438 -27.554688 0.734375 -26.828125 C -1.097656 -25.554688 -2.195312 -23.859375 -2.5625 -21.734375 C -2.925781 -19.609375 -2.460938 -17.609375 -1.171875 -15.734375 C 0.140625 -13.835938 1.863281 -12.6875 4 -12.28125 C 6.144531 -11.875 8.144531 -12.3125 10 -13.59375 C 11.1875 -14.414062 12.257812 -15.695312 13.21875 -17.4375 Z M 9.21875 -23.203125 "/></g></g></g><g fill="rgb(100%, 64.709473%, 0%)" fill-opacity="1"><g transform="translate(135.782095, 80.197394)"><g><path d="M 16.90625 -34.5625 L 22.03125 -19.625 C 23.195312 -16.21875 23.066406 -13.15625 21.640625 -10.4375 C 20.210938 -7.71875 17.703125 -5.742188 14.109375 -4.515625 C 10.472656 -3.265625 7.238281 -3.269531 4.40625 -4.53125 C 1.582031 -5.789062 -0.410156 -8.125 -1.578125 -11.53125 L -6.703125 -26.46875 L -0.15625 -28.703125 L 4.96875 -13.765625 C 5.550781 -12.054688 6.507812 -10.863281 7.84375 -10.1875 C 9.1875 -9.519531 10.660156 -9.457031 12.265625 -10 C 13.828125 -10.539062 14.910156 -11.472656 15.515625 -12.796875 C 16.117188 -14.128906 16.125 -15.660156 15.53125 -17.390625 L 10.40625 -32.328125 Z M 16.90625 -34.5625 "/></g></g></g><g fill="rgb(100%, 64.709473%, 0%)" fill-opacity="1"><g transform="translate(168.146469, 70.548596)"><g><path d="M 9.578125 -1.125 L 2.703125 -0.3125 L -0.453125 -27.328125 L 6.421875 -28.140625 Z M 9.578125 -1.125 "/></g></g></g><g fill="rgb(100%, 64.709473%, 0%)" fill-opacity="1"><g transform="translate(185.138807, 68.467522)"><g><path d="M 25.09375 -19.796875 L 16.90625 -20.421875 L 15.265625 1.15625 L 8.359375 0.640625 L 10 -20.9375 L 1.90625 -21.5625 L 2.34375 -27.140625 L 25.53125 -25.375 Z M 25.09375 -19.796875 "/></g></g></g><g fill="rgb(100%, 64.709473%, 0%)" fill-opacity="1"><g transform="translate(212.584522, 70.650723)"><g><path d="M 21.28125 2.09375 L 10.046875 -1.8125 L 6.53125 2.265625 L -0.171875 -0.0625 L 19.828125 -21.921875 L 26.546875 -19.578125 L 28.4375 9.875 L 21.46875 7.453125 Z M 21.109375 -3.546875 L 20.734375 -14.3125 L 13.6875 -6.125 Z M 21.109375 -3.546875 "/></g></g></g><g fill="rgb(100%, 64.709473%, 0%)" fill-opacity="1"><g transform="translate(243.948502, 82.179918)"><g><path d="M 15.6875 10.9375 L 16.75 2.34375 L 16.59375 2.234375 L 12.28125 -0.765625 L 7.90625 5.515625 L 2.234375 1.5625 L 17.796875 -20.75 L 27.78125 -13.796875 C 30.726562 -11.742188 32.535156 -9.476562 33.203125 -7 C 33.878906 -4.53125 33.351562 -2.050781 31.625 0.4375 C 29.21875 3.875 26.195312 5.328125 22.5625 4.796875 L 22.125 15.421875 Z M 15.390625 -5.21875 L 19.703125 -2.21875 C 20.929688 -1.363281 22.097656 -1.007812 23.203125 -1.15625 C 24.316406 -1.300781 25.28125 -1.957031 26.09375 -3.125 C 26.894531 -4.269531 27.164062 -5.378906 26.90625 -6.453125 C 26.644531 -7.523438 25.898438 -8.488281 24.671875 -9.34375 L 20.359375 -12.34375 Z M 15.390625 -5.21875 "/></g></g></g><g fill="rgb(94.119263%, 94.119263%, 91.758728%)" fill-opacity="1"><g transform="translate(71.653955, 292.187764)"><g><path d="M 21.15625 -6.1875 C 22.164062 -5.195312 22.960938 -4.015625 23.546875 -2.640625 C 24.128906 -1.265625 24.414062 0.101562 24.40625 1.46875 L 20.078125 1.90625 C 20.160156 0.914062 20.050781 -0.0351562 19.75 -0.953125 C 19.445312 -1.867188 18.992188 -2.628906 18.390625 -3.234375 C 17.304688 -4.273438 16.03125 -4.769531 14.5625 -4.71875 C 13.101562 -4.664062 11.828125 -4.082031 10.734375 -2.96875 C 9.617188 -1.820312 9.050781 -0.515625 9.03125 0.953125 C 9.007812 2.421875 9.539062 3.675781 10.625 4.71875 C 11.195312 5.28125 11.925781 5.722656 12.8125 6.046875 C 13.707031 6.367188 14.632812 6.519531 15.59375 6.5 L 15.546875 10.59375 C 14.054688 10.625 12.585938 10.378906 11.140625 9.859375 C 9.703125 9.335938 8.476562 8.582031 7.46875 7.59375 C 5.414062 5.59375 4.363281 3.257812 4.3125 0.59375 C 4.257812 -2.070312 5.207031 -4.40625 7.15625 -6.40625 C 9.070312 -8.363281 11.363281 -9.320312 14.03125 -9.28125 C 16.695312 -9.25 19.070312 -8.21875 21.15625 -6.1875 Z M 21.15625 -6.1875 "/></g></g></g><g fill="rgb(94.119263%, 94.119263%, 91.758728%)" fill-opacity="1"><g transform="translate(92.374212, 311.357252)"><g><path d="M 19.703125 -10.03125 C 22.171875 -8.40625 23.71875 -6.285156 24.34375 -3.671875 C 24.96875 -1.054688 24.519531 1.40625 23 3.71875 C 21.476562 6.03125 19.378906 7.425781 16.703125 7.90625 C 14.023438 8.382812 11.457031 7.816406 9 6.203125 C 6.550781 4.585938 5.019531 2.46875 4.40625 -0.15625 C 3.800781 -2.789062 4.265625 -5.273438 5.796875 -7.609375 C 7.316406 -9.929688 9.398438 -11.316406 12.046875 -11.765625 C 14.691406 -12.222656 17.242188 -11.644531 19.703125 -10.03125 Z M 17.5 -6.609375 C 16.269531 -7.429688 14.921875 -7.679688 13.453125 -7.359375 C 11.984375 -7.035156 10.804688 -6.207031 9.921875 -4.875 C 9.046875 -3.539062 8.742188 -2.125 9.015625 -0.625 C 9.296875 0.875 10.050781 2.023438 11.28125 2.828125 C 12.507812 3.640625 13.851562 3.867188 15.3125 3.515625 C 16.78125 3.160156 17.953125 2.316406 18.828125 0.984375 C 19.710938 -0.347656 20.019531 -1.742188 19.75 -3.203125 C 19.476562 -4.671875 18.726562 -5.804688 17.5 -6.609375 Z M 17.5 -6.609375 "/></g></g></g><g fill="rgb(94.119263%, 94.119263%, 91.758728%)" fill-opacity="1"><g transform="translate(118.988089, 327.533836)"><g><path d="M 7.796875 -1.0625 L 15.234375 2.109375 L 13.640625 5.828125 L 1.75 0.75 L 9.234375 -16.765625 L 13.6875 -14.859375 Z M 7.796875 -1.0625 "/></g></g></g><g fill="rgb(94.119263%, 94.119263%, 91.758728%)" fill-opacity="1"><g transform="translate(141.571093, 336.409248)"><g><path d="M 7.53125 -2.265625 L 15.359375 -0.28125 L 14.375 3.640625 L 1.84375 0.46875 L 6.515625 -18 L 11.21875 -16.8125 Z M 7.53125 -2.265625 "/></g></g></g><g fill="rgb(94.119263%, 94.119263%, 91.758728%)" fill-opacity="1"><g transform="translate(165.35546, 341.770343)"><g><path d="M 17.984375 -13.828125 L 7.96875 -14.640625 L 7.65625 -10.875 L 16.703125 -10.140625 L 16.40625 -6.328125 L 7.359375 -7.0625 L 7.046875 -3.25 L 17.359375 -2.40625 L 17.046875 1.390625 L 1.90625 0.15625 L 3.453125 -18.828125 L 18.296875 -17.625 Z M 17.984375 -13.828125 "/></g></g></g><g fill="rgb(94.119263%, 94.119263%, 91.758728%)" fill-opacity="1"><g transform="translate(192.920314, 343.203346)"><g><path d="M 8.90625 -20.171875 C 10.3125 -20.304688 11.722656 -20.148438 13.140625 -19.703125 C 14.566406 -19.265625 15.800781 -18.601562 16.84375 -17.71875 L 14.390625 -14.140625 C 13.703125 -14.835938 12.90625 -15.363281 12 -15.71875 C 11.09375 -16.082031 10.21875 -16.222656 9.375 -16.140625 C 7.875 -15.992188 6.671875 -15.34375 5.765625 -14.1875 C 4.859375 -13.03125 4.484375 -11.675781 4.640625 -10.125 C 4.796875 -8.539062 5.429688 -7.265625 6.546875 -6.296875 C 7.660156 -5.335938 8.96875 -4.929688 10.46875 -5.078125 C 11.257812 -5.160156 12.0625 -5.4375 12.875 -5.90625 C 13.695312 -6.382812 14.410156 -7 15.015625 -7.75 L 18.125 -5.0625 C 17.1875 -3.90625 16.050781 -2.941406 14.71875 -2.171875 C 13.382812 -1.410156 12.019531 -0.957031 10.625 -0.8125 C 7.769531 -0.539062 5.304688 -1.238281 3.234375 -2.90625 C 1.160156 -4.582031 -0.0078125 -6.8125 -0.28125 -9.59375 C -0.539062 -12.320312 0.195312 -14.691406 1.9375 -16.703125 C 3.6875 -18.722656 6.007812 -19.878906 8.90625 -20.171875 Z M 8.90625 -20.171875 "/></g></g></g><g fill="rgb(94.119263%, 94.119263%, 91.758728%)" fill-opacity="1"><g transform="translate(220.70957, 339.586799)"><g><path d="M 11.8125 -19 L 6.28125 -17.46875 L 10.328125 -2.859375 L 5.65625 -1.5625 L 1.609375 -16.171875 L -3.859375 -14.65625 L -4.90625 -18.421875 L 10.765625 -22.765625 Z M 11.8125 -19 "/></g></g></g><g fill="rgb(94.119263%, 94.119263%, 91.758728%)" fill-opacity="1"><g transform="translate(244.990817, 331.934605)"><g><path d="M 6.1875 -2.6875 L 1.75 -0.75 L -5.8125 -18.234375 L -1.375 -20.171875 Z M 6.1875 -2.6875 "/></g></g></g><g fill="rgb(94.119263%, 94.119263%, 91.758728%)" fill-opacity="1"><g transform="translate(261.174117, 324.724945)"><g><path d="M -1.046875 -22.078125 C 1.453125 -23.660156 4.019531 -24.195312 6.65625 -23.6875 C 9.300781 -23.1875 11.363281 -21.769531 12.84375 -19.4375 C 14.320312 -17.09375 14.726562 -14.601562 14.0625 -11.96875 C 13.40625 -9.332031 11.832031 -7.226562 9.34375 -5.65625 C 6.863281 -4.09375 4.296875 -3.570312 1.640625 -4.09375 C -1.003906 -4.613281 -3.070312 -6.050781 -4.5625 -8.40625 C -6.039062 -10.75 -6.441406 -13.21875 -5.765625 -15.8125 C -5.097656 -18.414062 -3.523438 -20.503906 -1.046875 -22.078125 Z M 1.171875 -18.671875 C -0.078125 -17.878906 -0.859375 -16.75 -1.171875 -15.28125 C -1.484375 -13.8125 -1.210938 -12.398438 -0.359375 -11.046875 C 0.492188 -9.691406 1.660156 -8.832031 3.140625 -8.46875 C 4.628906 -8.113281 5.992188 -8.328125 7.234375 -9.109375 C 8.472656 -9.898438 9.226562 -11.03125 9.5 -12.5 C 9.78125 -13.976562 9.492188 -15.394531 8.640625 -16.75 C 7.785156 -18.101562 6.632812 -18.957031 5.1875 -19.3125 C 3.75 -19.675781 2.410156 -19.460938 1.171875 -18.671875 Z M 1.171875 -18.671875 "/></g></g></g><g fill="rgb(94.119263%, 94.119263%, 91.758728%)" fill-opacity="1"><g transform="translate(287.149301, 307.116102)"><g><path d="M 14.0625 -13.484375 L 10.96875 -10.515625 L -3.453125 -12.921875 L 4.65625 -4.46875 L 1.375 -1.3125 L -11.8125 -15.0625 L -8.734375 -18.015625 L 5.75 -15.625 L -2.390625 -24.109375 L 0.875 -27.234375 Z M 14.0625 -13.484375 "/></g></g></g><g clip-path="url(#id17)"><path fill="rgb(94.119263%, 94.119263%, 91.758728%)" d="M 187.480469 299.59375 C 125.546875 299.59375 75.324219 249.347656 75.324219 187.382812 L 100.9375 187.382812 C 100.9375 235.199219 139.6875 273.96875 187.480469 273.96875 C 235.273438 273.96875 274.023438 235.199219 274.023438 187.382812 L 299.636719 187.382812 C 299.636719 249.347656 249.414062 299.59375 187.480469 299.59375 Z M 187.480469 299.59375 " fill-opacity="1" fill-rule="nonzero"/></g><path fill="rgb(94.119263%, 94.119263%, 91.758728%)" d="M 187.480469 248.375 C 153.828125 248.375 126.515625 221.050781 126.515625 187.382812 L 152.128906 187.382812 C 152.128906 206.933594 167.9375 222.75 187.480469 222.75 C 207.023438 222.75 222.832031 206.933594 222.832031 187.382812 L 248.441406 187.382812 C 248.441406 221.050781 221.132812 248.375 187.480469 248.375 Z M 187.480469 248.375 " fill-opacity="1" fill-rule="nonzero"/><path fill="rgb(100%, 64.709473%, 0%)" d="M 248.441406 187.382812 C 248.441406 153.710938 221.132812 126.386719 187.480469 126.386719 C 153.828125 126.386719 126.515625 153.710938 126.515625 187.382812 L 100.9375 187.382812 C 100.9375 139.5625 139.6875 100.792969 187.480469 100.792969 C 235.273438 100.792969 274.023438 139.5625 274.023438 187.382812 Z M 248.441406 187.382812 " fill-opacity="1" fill-rule="nonzero"/><path fill="rgb(100%, 64.709473%, 0%)" d="M 187.480469 152.011719 C 207.003906 152.011719 222.832031 167.847656 222.832031 187.382812 L 152.128906 187.382812 C 152.128906 167.847656 167.957031 152.011719 187.480469 152.011719 Z M 187.480469 152.011719 " fill-opacity="1" fill-rule="nonzero"/></svg>